<svg xmlns="http://www.w3.org/2000/svg" viewBox="0 0 26.41 26.41"><defs><style>.cls-1{fill:#5c260c;}</style></defs><g id="Layer_2" data-name="Layer 2"><g id="Layer_1-2" data-name="Layer 1"><path class="cls-1" d="M23.67,16.06A14.59,14.59,0,0,1,21,15.5a3.1,3.1,0,0,0-3.11.76L16.15,18a19.48,19.48,0,0,1-7.69-7.69l1.69-1.69a3.1,3.1,0,0,0,.76-3.11,14.76,14.76,0,0,1-.56-2.72A3.1,3.1,0,0,0,7.27,0H3.1A3.12,3.12,0,0,0,.81,1,3.15,3.15,0,0,0,0,3.11,2.81,2.81,0,0,0,0,3.4,25.33,25.33,0,0,0,2.37,12a25.22,25.22,0,0,0,5,7.07,25.22,25.22,0,0,0,7.07,5A25.33,25.33,0,0,0,23,26.4a3.17,3.17,0,0,0,2.39-.8,3.12,3.12,0,0,0,1-2.29V19.14A3.1,3.1,0,0,0,23.67,16.06Z"/></g></g></svg>